<svg id="Warstwa_1" data-name="Warstwa 1" xmlns="http://www.w3.org/2000/svg" viewBox="0 0 21 25"><defs><style>.cls-1{fill:none;stroke:#222;stroke-linejoin:round;}</style></defs><path class="cls-1" d="M3.41,6.8l-1.75,0A.67.67,0,0,0,1,7.43a.37.37,0,0,0,0,.11l.24,7.55a.69.69,0,0,0,.19.46l8.7,8.94a1.66,1.66,0,0,0,1.2.51,1.69,1.69,0,0,0,1.21-.51l5.71-5.88a1.78,1.78,0,0,0,0-2.48l-.44-.51m0,0-3,3.12a1.66,1.66,0,0,1-1.2.51,1.69,1.69,0,0,1-1.21-.51L3.68,9.81a.68.68,0,0,1-.19-.46L3.25,1.8a.49.49,0,0,1,0-.12A.67.67,0,0,1,3.9,1l7.46.25a.69.69,0,0,1,.45.2l8.69,8.94a1.77,1.77,0,0,1,0,2.47ZM7.15,3.3A1.63,1.63,0,0,0,6,3.8,1.75,1.75,0,0,0,6,6.24a1.6,1.6,0,0,0,1.18.51,1.64,1.64,0,0,0,1.19-.51,1.76,1.76,0,0,0,0-2.44A1.67,1.67,0,0,0,7.15,3.3Z" transform="translate(-0.5 -0.5)"/></svg>